<svg width="672" height="141" viewBox="0 0 672 141" fill="none" xmlns="http://www.w3.org/2000/svg">
<g clip-path="url(#clip0_3_19)">
<path d="M24.832 108.408C19.2 106.531 14.9333 104.781 12.032 103.16C9.13067 101.539 7.68 100.216 7.68 99.192C7.68 98.2533 7.76533 97.272 7.936 96.248C8.10667 95.224 8.27733 93.7307 8.448 91.768C8.61867 89.8053 8.704 86.9893 8.704 83.32V57.72C8.704 52.088 8.91733 47.5227 9.344 44.024C9.856 40.44 10.368 37.6667 10.88 35.704H6.528L0.128 27.128L1.152 25.08H12.672C16 25.08 19.072 25.0373 21.888 24.952C24.704 24.7813 26.7947 24.696 28.16 24.696C30.1227 24.696 32.4267 25.4213 35.072 26.872C37.7173 28.2373 40.2773 29.9867 42.752 32.12C45.312 34.2533 47.4453 36.472 49.152 38.776C50.8587 40.9947 51.712 43 51.712 44.792V58.36C51.712 65.016 50.5173 70.008 48.128 73.336C45.7387 76.5787 41.8133 78.2 36.352 78.2C34.048 78.2 31.616 77.9867 29.056 77.56C26.496 77.1333 24.0213 76.536 21.632 75.768V86.136C21.632 89.8053 21.504 92.7493 21.248 94.968C21.0773 97.1013 20.992 98.7653 20.992 99.96C20.992 101.411 22.8267 102.989 26.496 104.696L24.832 108.408ZM32.512 35.704C31.232 35.704 29.8667 35.7467 28.416 35.832C27.0507 35.9173 25.6 36.088 24.064 36.344C23.3813 38.648 22.784 41.5067 22.272 44.92C21.8453 48.3333 21.632 52.3013 21.632 56.824V67.32C23.2533 67.6613 25.1307 67.832 27.264 67.832C31.7013 67.832 34.7307 66.68 36.352 64.376C37.9733 62.072 38.784 58.4453 38.784 53.496V42.104C38.784 39.8 38.3573 38.1787 37.504 37.24C36.6507 36.216 34.9867 35.704 32.512 35.704ZM84.208 106.36C82.16 106.36 79.6853 105.848 76.784 104.824C73.8827 103.8 71.0667 102.435 68.336 100.728C65.6053 99.0213 63.3013 97.0587 61.424 94.84C59.632 92.6213 58.736 90.36 58.736 88.056C58.736 87.032 58.864 84.0453 59.12 79.096C59.4613 74.1467 59.632 67.96 59.632 60.536C59.632 54.5627 61.3813 50.168 64.88 47.352C68.3787 44.536 73.6267 43.128 80.624 43.128C82.672 43.128 84.9333 43.768 87.408 45.048C89.968 46.328 92.4 47.992 94.704 50.04C97.008 52.088 98.8853 54.264 100.336 56.568C101.872 58.7867 102.64 60.8773 102.64 62.84C102.64 66.0827 102.555 69.5813 102.384 73.336C102.299 77.0907 102.256 81.912 102.256 87.8C102.256 93.2613 100.763 97.7413 97.776 101.24C94.7893 104.653 90.2667 106.36 84.208 106.36ZM76.016 95.48C80.7093 95.48 84.1227 94.4987 86.256 92.536C88.4747 90.5733 89.584 87.672 89.584 83.832C89.584 81.1013 89.6267 78.0293 89.712 74.616C89.7973 71.1173 89.8827 67.9173 89.968 65.016C90.0533 62.0293 90.096 59.9387 90.096 58.744C90.096 57.2933 89.84 56.2267 89.328 55.544C88.816 54.776 87.792 54.392 86.256 54.392C81.648 54.392 78.1067 55.2027 75.632 56.824C73.2427 58.36 72.048 61.304 72.048 65.656C72.048 73.848 71.9627 80.0347 71.792 84.216C71.6213 88.312 71.536 91.0853 71.536 92.536C71.536 94.4987 73.0293 95.48 76.016 95.48ZM130.671 107.256C125.21 105.208 120.986 103.373 117.999 101.752C115.098 100.045 113.647 98.5093 113.647 97.144C113.647 95.9493 113.775 94.1147 114.031 91.64C114.372 89.08 114.543 86.6053 114.543 84.216V49.784C114.543 44.664 114.714 39.9707 115.055 35.704C115.482 31.352 115.994 27.8533 116.591 25.208H111.087L104.047 16.888L104.943 14.84H121.583L129.135 24.568C128.538 27.896 128.068 31.6933 127.727 35.96C127.386 40.1413 127.215 44.408 127.215 48.76V66.168C127.983 66.424 129.05 66.552 130.415 66.552C133.146 66.552 135.279 66.0827 136.815 65.144C138.351 64.2053 139.972 62.7547 141.679 60.792C142.703 59.5973 143.556 58.488 144.239 57.464C145.007 56.3547 145.604 55.416 146.031 54.648H141.295L135.279 45.816L136.175 43.768H150.511L157.679 54.648C156.996 56.2693 156.143 58.0613 155.119 60.024C154.18 61.9013 153.156 63.5653 152.047 65.016C149.231 68.856 146.628 71.6293 144.239 73.336C147.311 74.7013 150.084 76.3227 152.559 78.2C155.034 80.0773 156.271 82.0827 156.271 84.216C156.271 85.3253 156.228 86.7333 156.143 88.44C156.143 90.1467 156.1 91.8533 156.015 93.56C155.93 95.1813 155.887 96.504 155.887 97.528C155.887 98.9787 156.356 100.173 157.295 101.112C158.319 102.051 159.855 103.203 161.903 104.568L159.855 107.896C154.394 105.336 150.212 103.331 147.311 101.88C144.41 100.344 142.959 98.936 142.959 97.656C142.959 96.5467 143.002 95.096 143.087 93.304C143.172 91.512 143.258 89.6347 143.343 87.672C143.428 85.7093 143.471 84.0027 143.471 82.552C143.471 81.272 142.49 79.992 140.527 78.712C138.65 77.3467 135.578 76.3653 131.311 75.768L127.215 75.256V85.624C127.215 88.696 127.087 91.4267 126.831 93.816C126.575 96.12 126.447 97.8693 126.447 99.064C126.447 99.9173 126.746 100.6 127.343 101.112C128.026 101.539 129.647 102.435 132.207 103.8L130.671 107.256ZM146.799 52.984L146.287 54.136C146.458 53.7093 146.628 53.3253 146.799 52.984ZM193.238 106.104C191.19 106.104 188.673 105.592 185.686 104.568C182.699 103.459 179.713 102.051 176.726 100.344C173.825 98.552 171.393 96.632 169.43 94.584C167.467 92.4507 166.486 90.36 166.486 88.312C166.486 86.264 166.614 82.7227 166.87 77.688C167.211 72.6533 167.382 66.6373 167.382 59.64C167.382 48.5467 173.441 43 185.558 43C187.435 43 189.611 43.5973 192.086 44.792C194.561 45.9013 196.95 47.3947 199.254 49.272C201.558 51.064 203.478 52.9413 205.014 54.904C206.55 56.8667 207.318 58.7013 207.318 60.408V70.904C207.318 77.816 203.478 81.272 195.798 81.272C193.409 81.272 190.678 81.144 187.606 80.888C184.534 80.5467 181.803 80.1627 179.414 79.736C179.329 82.552 179.243 85.112 179.158 87.416C179.158 89.6347 179.158 90.9147 179.158 91.256C179.158 92.6213 179.499 93.6027 180.182 94.2C180.865 94.7973 182.102 95.096 183.894 95.096C186.539 95.096 189.398 94.712 192.47 93.944C195.627 93.0907 198.443 91.8533 200.918 90.232H202.838L209.75 100.728C208.129 102.264 205.697 103.544 202.454 104.568C199.297 105.592 196.225 106.104 193.238 106.104ZM179.798 63.736C179.798 64.4187 179.755 65.4427 179.67 66.808C179.67 68.1733 179.67 69.7093 179.67 71.416C182.145 71.672 185.003 71.8 188.246 71.8C190.721 71.8 192.427 71.2027 193.366 70.008C194.39 68.728 194.902 66.808 194.902 64.248V57.336C194.902 56.3973 194.646 55.5867 194.134 54.904C193.622 54.2213 192.513 53.88 190.806 53.88C187.393 53.88 184.705 54.6053 182.742 56.056C180.779 57.4213 179.798 59.9813 179.798 63.736ZM236.445 107C230.984 104.952 226.76 103.117 223.773 101.496C220.872 99.7893 219.421 98.2533 219.421 96.888C219.421 95.6933 219.549 93.8587 219.805 91.384C220.146 88.824 220.317 86.3493 220.317 83.96V67.576C220.317 65.8693 220.36 63.736 220.445 61.176C220.616 58.616 220.914 56.44 221.341 54.648H216.605L209.949 45.816L210.845 43.768H222.877C223.218 43.768 223.944 44.3227 225.053 45.432C226.162 46.5413 227.272 47.8213 228.381 49.272C231.709 45.0053 235.89 42.872 240.925 42.872H242.717C244.424 42.872 246.344 43.5973 248.477 45.048C250.61 46.4133 252.616 48.0347 254.493 49.912C256.285 47.352 258.418 45.56 260.893 44.536C263.368 43.4267 265.928 42.872 268.573 42.872H270.749C272.456 42.872 274.333 43.5547 276.381 44.92C278.514 46.2853 280.52 47.9493 282.397 49.912C284.36 51.8747 285.938 53.8373 287.133 55.8C288.413 57.6773 289.053 59.2133 289.053 60.408C289.053 62.5413 288.968 65.1867 288.797 68.344C288.626 71.5013 288.541 74.0613 288.541 76.024V85.368C288.541 88.44 288.413 91.1707 288.157 93.56C287.901 95.864 287.773 97.6133 287.773 98.808C287.773 99.6613 288.072 100.344 288.669 100.856C289.352 101.283 290.973 102.179 293.533 103.544L291.997 107C286.536 104.952 282.312 103.117 279.325 101.496C276.424 99.7893 274.973 98.2533 274.973 96.888C274.973 95.6933 275.101 93.8587 275.357 91.384C275.698 88.824 275.869 86.3493 275.869 83.96V77.304C275.869 74.5733 275.954 71.4587 276.125 67.96C276.296 64.4613 276.381 61.3893 276.381 58.744C276.381 57.0373 276.168 55.8853 275.741 55.288C275.314 54.6907 274.376 54.392 272.925 54.392C265.501 54.392 261.49 57.848 260.893 64.76C260.893 66.7227 260.85 68.728 260.765 70.776C260.765 72.824 260.765 74.5733 260.765 76.024V85.368C260.765 88.44 260.637 91.1707 260.381 93.56C260.125 95.864 259.997 97.6133 259.997 98.808C259.997 99.6613 260.296 100.344 260.893 100.856C261.576 101.283 263.197 102.179 265.757 103.544L264.221 107C258.76 104.952 254.536 103.117 251.549 101.496C248.648 99.7893 247.197 98.2533 247.197 96.888C247.197 95.6933 247.325 93.8587 247.581 91.384C247.922 88.824 248.093 86.3493 248.093 83.96V77.304C248.093 74.5733 248.136 71.4587 248.221 67.96C248.392 64.4613 248.477 61.3893 248.477 58.744C248.477 57.0373 248.264 55.8853 247.837 55.288C247.41 54.6907 246.472 54.392 245.021 54.392C240.84 54.392 237.768 55.6293 235.805 58.104C233.928 60.4933 232.989 63.8213 232.989 68.088V85.368C232.989 88.44 232.861 91.1707 232.605 93.56C232.349 95.864 232.221 97.6133 232.221 98.808C232.221 99.6613 232.52 100.344 233.117 100.856C233.8 101.283 235.421 102.179 237.981 103.544L236.445 107ZM325.083 106.36C323.035 106.36 320.56 105.848 317.659 104.824C314.758 103.8 311.942 102.435 309.211 100.728C306.48 99.0213 304.176 97.0587 302.299 94.84C300.507 92.6213 299.611 90.36 299.611 88.056C299.611 87.032 299.739 84.0453 299.995 79.096C300.336 74.1467 300.507 67.96 300.507 60.536C300.507 54.5627 302.256 50.168 305.755 47.352C309.254 44.536 314.502 43.128 321.499 43.128C323.547 43.128 325.808 43.768 328.283 45.048C330.843 46.328 333.275 47.992 335.579 50.04C337.883 52.088 339.76 54.264 341.211 56.568C342.747 58.7867 343.515 60.8773 343.515 62.84C343.515 66.0827 343.43 69.5813 343.259 73.336C343.174 77.0907 343.131 81.912 343.131 87.8C343.131 93.2613 341.638 97.7413 338.651 101.24C335.664 104.653 331.142 106.36 325.083 106.36ZM316.891 95.48C321.584 95.48 324.998 94.4987 327.131 92.536C329.35 90.5733 330.459 87.672 330.459 83.832C330.459 81.1013 330.502 78.0293 330.587 74.616C330.672 71.1173 330.758 67.9173 330.843 65.016C330.928 62.0293 330.971 59.9387 330.971 58.744C330.971 57.2933 330.715 56.2267 330.203 55.544C329.691 54.776 328.667 54.392 327.131 54.392C322.523 54.392 318.982 55.2027 316.507 56.824C314.118 58.36 312.923 61.304 312.923 65.656C312.923 73.848 312.838 80.0347 312.667 84.216C312.496 88.312 312.411 91.0853 312.411 92.536C312.411 94.4987 313.904 95.48 316.891 95.48ZM372.57 107C367.109 104.952 362.885 103.117 359.898 101.496C356.997 99.7893 355.546 98.2533 355.546 96.888C355.546 95.6933 355.674 93.8587 355.93 91.384C356.271 88.824 356.442 86.3493 356.442 83.96V67.576C356.442 65.8693 356.485 63.736 356.57 61.176C356.741 58.616 357.039 56.44 357.466 54.648H352.73L346.074 45.816L346.97 43.768H359.002C359.343 43.768 360.069 44.3653 361.178 45.56C362.373 46.6693 363.567 47.9493 364.762 49.4C366.383 47.1813 368.389 45.56 370.778 44.536C373.253 43.4267 375.642 42.872 377.946 42.872H380.634C382.341 42.872 384.218 43.5547 386.266 44.92C388.399 46.2853 390.447 47.9493 392.41 49.912C394.458 51.8747 396.122 53.8373 397.402 55.8C398.682 57.6773 399.322 59.2133 399.322 60.408C399.322 62.5413 399.237 65.1867 399.066 68.344C398.895 71.5013 398.81 74.0613 398.81 76.024V85.368C398.81 88.44 398.682 91.1707 398.426 93.56C398.17 95.864 398.042 97.6133 398.042 98.808C398.042 99.6613 398.341 100.344 398.938 100.856C399.621 101.283 401.242 102.179 403.802 103.544L402.266 107C396.805 104.952 392.581 103.117 389.594 101.496C386.693 99.7893 385.242 98.2533 385.242 96.888C385.242 95.6933 385.37 93.8587 385.626 91.384C385.967 88.824 386.138 86.3493 386.138 83.96V77.304C386.138 74.5733 386.223 71.4587 386.394 67.96C386.565 64.4613 386.65 61.3893 386.65 58.744C386.65 57.0373 386.437 55.8853 386.01 55.288C385.583 54.6907 384.645 54.392 383.194 54.392C378.415 54.392 374.874 55.6293 372.57 58.104C370.266 60.4933 369.114 63.8213 369.114 68.088V85.368C369.114 88.44 368.986 91.1707 368.73 93.56C368.474 95.864 368.346 97.6133 368.346 98.808C368.346 99.6613 368.645 100.344 369.242 100.856C369.925 101.283 371.546 102.179 374.106 103.544L372.57 107ZM436.083 106.36C434.035 106.36 431.56 105.848 428.659 104.824C425.758 103.8 422.942 102.435 420.211 100.728C417.48 99.0213 415.176 97.0587 413.299 94.84C411.507 92.6213 410.611 90.36 410.611 88.056C410.611 87.032 410.739 84.0453 410.995 79.096C411.336 74.1467 411.507 67.96 411.507 60.536C411.507 54.5627 413.256 50.168 416.755 47.352C420.254 44.536 425.502 43.128 432.499 43.128C434.547 43.128 436.808 43.768 439.283 45.048C441.843 46.328 444.275 47.992 446.579 50.04C448.883 52.088 450.76 54.264 452.211 56.568C453.747 58.7867 454.515 60.8773 454.515 62.84C454.515 66.0827 454.43 69.5813 454.259 73.336C454.174 77.0907 454.131 81.912 454.131 87.8C454.131 93.2613 452.638 97.7413 449.651 101.24C446.664 104.653 442.142 106.36 436.083 106.36ZM427.891 95.48C432.584 95.48 435.998 94.4987 438.131 92.536C440.35 90.5733 441.459 87.672 441.459 83.832C441.459 81.1013 441.502 78.0293 441.587 74.616C441.672 71.1173 441.758 67.9173 441.843 65.016C441.928 62.0293 441.971 59.9387 441.971 58.744C441.971 57.2933 441.715 56.2267 441.203 55.544C440.691 54.776 439.667 54.392 438.131 54.392C433.523 54.392 429.982 55.2027 427.507 56.824C425.118 58.36 423.923 61.304 423.923 65.656C423.923 73.848 423.838 80.0347 423.667 84.216C423.496 88.312 423.411 91.0853 423.411 92.536C423.411 94.4987 424.904 95.48 427.891 95.48ZM482.546 107.256C477.085 105.208 472.861 103.373 469.874 101.752C466.973 100.045 465.522 98.5093 465.522 97.144C465.522 95.9493 465.65 94.1147 465.906 91.64C466.247 89.08 466.418 86.6053 466.418 84.216V49.784C466.418 44.664 466.589 39.9707 466.93 35.704C467.357 31.352 467.869 27.8533 468.466 25.208H462.962L455.922 16.888L456.818 14.84H473.458L481.01 24.568C480.413 27.896 479.943 31.6933 479.602 35.96C479.261 40.1413 479.09 44.408 479.09 48.76V85.624C479.09 88.696 478.962 91.4267 478.706 93.816C478.45 96.12 478.322 97.8693 478.322 99.064C478.322 99.9173 478.621 100.6 479.218 101.112C479.901 101.539 481.522 102.435 484.082 103.8L482.546 107.256ZM516.208 106.36C514.16 106.36 511.685 105.848 508.784 104.824C505.883 103.8 503.067 102.435 500.336 100.728C497.605 99.0213 495.301 97.0587 493.424 94.84C491.632 92.6213 490.736 90.36 490.736 88.056C490.736 87.032 490.864 84.0453 491.12 79.096C491.461 74.1467 491.632 67.96 491.632 60.536C491.632 54.5627 493.381 50.168 496.88 47.352C500.379 44.536 505.627 43.128 512.624 43.128C514.672 43.128 516.933 43.768 519.408 45.048C521.968 46.328 524.4 47.992 526.704 50.04C529.008 52.088 530.885 54.264 532.336 56.568C533.872 58.7867 534.64 60.8773 534.64 62.84C534.64 66.0827 534.555 69.5813 534.384 73.336C534.299 77.0907 534.256 81.912 534.256 87.8C534.256 93.2613 532.763 97.7413 529.776 101.24C526.789 104.653 522.267 106.36 516.208 106.36ZM508.016 95.48C512.709 95.48 516.123 94.4987 518.256 92.536C520.475 90.5733 521.584 87.672 521.584 83.832C521.584 81.1013 521.627 78.0293 521.712 74.616C521.797 71.1173 521.883 67.9173 521.968 65.016C522.053 62.0293 522.096 59.9387 522.096 58.744C522.096 57.2933 521.84 56.2267 521.328 55.544C520.816 54.776 519.792 54.392 518.256 54.392C513.648 54.392 510.107 55.2027 507.632 56.824C505.243 58.36 504.048 61.304 504.048 65.656C504.048 73.848 503.963 80.0347 503.792 84.216C503.621 88.312 503.536 91.0853 503.536 92.536C503.536 94.4987 505.029 95.48 508.016 95.48ZM566.127 131.576C559.556 131.576 554.266 129.741 550.255 126.072C546.244 122.403 543.087 116.344 540.783 107.896L545.007 106.616C546.543 110.541 548.506 113.528 550.895 115.576C553.284 117.624 556.698 118.648 561.135 118.648C564.548 118.648 567.663 118.221 570.479 117.368C573.295 116.515 575.556 115.32 577.263 113.784C578.97 112.333 579.823 110.755 579.823 109.048C579.823 107.512 579.098 106.744 577.647 106.744C576.367 106.744 574.788 106.957 572.911 107.384C571.034 107.811 569.114 108.237 567.151 108.664C565.188 109.176 563.354 109.432 561.647 109.432C559.855 109.432 557.978 108.749 556.015 107.384C554.052 106.019 552.175 104.355 550.383 102.392C548.676 100.344 547.268 98.296 546.159 96.248C545.135 94.1147 544.623 92.3227 544.623 90.872C544.623 88.1413 545.434 85.9227 547.055 84.216C548.762 82.5093 550.81 81.1867 553.199 80.248C547.311 77.5173 544.367 72.9947 544.367 66.68V60.664C544.367 55.3733 545.434 51.32 547.567 48.504C549.786 45.6027 553.54 43.9387 558.831 43.512L567.919 42.744C570.906 42.488 573.082 41.848 574.447 40.824C575.812 39.8 576.708 38.136 577.135 35.832L578.671 34.936L587.503 40.056C586.991 43.896 585.754 46.7973 583.791 48.76C581.914 50.7227 579.482 52.0453 576.495 52.728C578.799 53.9227 580.634 55.5867 581.999 57.72C583.45 59.8533 584.175 62.2 584.175 64.76V70.776C584.175 74.7013 583.791 77.8587 583.023 80.248C582.255 82.6373 580.762 84.472 578.543 85.752C576.41 87.032 573.21 88.0987 568.943 88.952L563.439 89.976C559.855 90.5733 557.423 91.384 556.143 92.408C554.863 93.3467 554.223 94.456 554.223 95.736C554.223 97.1013 555.076 97.784 556.783 97.784C558.746 97.784 560.836 97.528 563.055 97.016C565.359 96.504 567.535 95.992 569.583 95.48C571.716 94.968 573.466 94.712 574.831 94.712C576.538 94.712 578.159 95.5227 579.695 97.144C581.316 98.68 582.724 100.643 583.919 103.032C585.199 105.336 586.18 107.683 586.863 110.072C587.631 112.547 588.015 114.637 588.015 116.344C588.015 121.208 585.924 124.963 581.743 127.608C577.647 130.253 572.442 131.576 566.127 131.576ZM556.271 69.496C556.271 71.8 556.57 73.7627 557.167 75.384C557.85 76.92 558.916 77.944 560.367 78.456L564.463 77.816C566.938 77.3893 568.943 76.5787 570.479 75.384C572.015 74.1893 572.783 71.6293 572.783 67.704V63.48C572.783 59.9813 572.484 57.5067 571.887 56.056C571.29 54.52 570.308 53.624 568.943 53.368L564.207 53.752C561.05 54.008 558.916 54.9467 557.807 56.568C556.783 58.1893 556.271 60.92 556.271 64.76V69.496ZM604.958 35.192L596.51 26.104V24.824C598.814 21.752 601.929 19.064 605.854 16.76L614.302 25.592L614.174 27.128C612.467 28.3227 610.846 29.6453 609.31 31.096C607.859 32.5467 606.409 33.912 604.958 35.192ZM616.35 107.256C610.889 105.208 606.665 103.373 603.678 101.752C600.777 100.045 599.326 98.5093 599.326 97.144C599.326 95.9493 599.454 94.1147 599.71 91.64C600.051 89.08 600.222 86.6053 600.222 84.216V65.912C600.222 63.6933 600.307 61.6453 600.478 59.768C600.734 57.8053 601.118 56.0987 601.63 54.648H597.406L590.622 45.944L591.518 43.768H607.902L615.326 53.752C614.302 55.1173 613.619 56.824 613.278 58.872C613.022 60.92 612.894 63.5227 612.894 66.68V85.624C612.894 88.696 612.766 91.4267 612.51 93.816C612.254 96.12 612.126 97.8693 612.126 99.064C612.126 99.9173 612.425 100.6 613.022 101.112C613.705 101.539 615.326 102.435 617.886 103.8L616.35 107.256ZM652.863 106.104C650.815 106.104 648.298 105.592 645.311 104.568C642.324 103.459 639.338 102.051 636.351 100.344C633.45 98.552 631.018 96.632 629.055 94.584C627.092 92.4507 626.111 90.36 626.111 88.312C626.111 86.264 626.239 82.7227 626.495 77.688C626.836 72.6533 627.007 66.6373 627.007 59.64C627.007 48.5467 633.066 43 645.183 43C647.06 43 649.236 43.5973 651.711 44.792C654.186 45.9013 656.575 47.3947 658.879 49.272C661.183 51.064 663.103 52.9413 664.639 54.904C666.175 56.8667 666.943 58.7013 666.943 60.408V70.904C666.943 77.816 663.103 81.272 655.423 81.272C653.034 81.272 650.303 81.144 647.231 80.888C644.159 80.5467 641.428 80.1627 639.039 79.736C638.954 82.552 638.868 85.112 638.783 87.416C638.783 89.6347 638.783 90.9147 638.783 91.256C638.783 92.6213 639.124 93.6027 639.807 94.2C640.49 94.7973 641.727 95.096 643.519 95.096C646.164 95.096 649.023 94.712 652.095 93.944C655.252 93.0907 658.068 91.8533 660.543 90.232H662.463L669.375 100.728C667.754 102.264 665.322 103.544 662.079 104.568C658.922 105.592 655.85 106.104 652.863 106.104ZM639.423 63.736C639.423 64.4187 639.38 65.4427 639.295 66.808C639.295 68.1733 639.295 69.7093 639.295 71.416C641.77 71.672 644.628 71.8 647.871 71.8C650.346 71.8 652.052 71.2027 652.991 70.008C654.015 68.728 654.527 66.808 654.527 64.248V57.336C654.527 56.3973 654.271 55.5867 653.759 54.904C653.247 54.2213 652.138 53.88 650.431 53.88C647.018 53.88 644.33 54.6053 642.367 56.056C640.404 57.4213 639.423 59.9813 639.423 63.736Z" fill="url(#paint0_linear_3_19)"/>
</g>
<defs>
<linearGradient id="paint0_linear_3_19" x1="0" y1="57" x2="672" y2="57" gradientUnits="userSpaceOnUse">
<stop stop-color="#DEB7FF"/>
<stop offset="1" stop-color="#D09147"/>
</linearGradient>
<clipPath id="clip0_3_19">
<rect width="672" height="141" fill="white"/>
</clipPath>
</defs>
</svg>
